<?xml version="1.0" standalone="no"?>
<!DOCTYPE svg PUBLIC "-//W3C//DTD SVG 20010904//EN"
 "http://www.w3.org/TR/2001/REC-SVG-20010904/DTD/svg10.dtd">
<svg version="1.0" xmlns="http://www.w3.org/2000/svg"
 width="700.000000pt" height="700.000000pt" viewBox="0 0 700.000000 700.000000"
 preserveAspectRatio="xMidYMid meet">
<metadata>
Created by potrace 1.11, written by Peter Selinger 2001-2013
</metadata>
<g transform="translate(0.000000,700.000000) scale(0.100000,-0.100000)"
fill="#000000" stroke="none">
<path d="M3412 6818 l-82 -123 0 -3316 0 -3316 53 -7 c66 -8 181 -8 230 0 l37
7 0 3331 0 3331 -72 108 c-40 59 -75 107 -78 107 -3 0 -43 -55 -88 -122z"/>
<path d="M3850 3251 l0 -3173 23 6 c12 3 32 6 45 6 l22 0 0 3098 0 3097 -45
70 -44 70 -1 -3174z"/>
<path d="M3082 6321 l-42 -68 0 -3076 0 -3077 28 -5 c15 -4 35 -8 45 -10 16
-3 17 152 17 3151 0 1735 -1 3154 -3 3154 -1 0 -21 -31 -45 -69z"/>
<path d="M4050 3116 l0 -2996 28 6 c15 4 59 17 97 29 l70 21 3 2812 2 2813
-100 156 -100 156 0 -2997z"/>
<path d="M2875 5997 c-33 -50 -103 -164 -157 -251 l-98 -160 2 -2679 3 -2680
85 -32 c47 -18 118 -42 158 -53 l72 -20 0 2984 c0 1641 -1 2984 -2 2984 -2 0
-30 -42 -63 -93z"/>
<path d="M4450 2861 l0 -2603 103 54 102 55 3 2373 2 2373 -92 156 c-50 86
-97 165 -105 176 -11 16 -13 -398 -13 -2584z"/>
<path d="M2287 5018 l-97 -171 0 -2188 0 -2188 33 -24 c17 -14 62 -43 100 -66
l67 -41 0 2425 c0 1334 -1 2425 -3 2425 -2 0 -47 -77 -100 -172z"/>
<path d="M4760 2688 c0 -1237 3 -2248 6 -2248 3 0 48 32 100 71 l94 70 0 1995
0 1994 -74 138 c-41 75 -86 157 -100 182 l-26 45 0 -2247z"/>
<path d="M2033 4556 l-43 -83 0 -1924 0 -1924 41 -34 c22 -18 42 -31 45 -29 2
3 3 921 2 2041 l-3 2036 -42 -83z"/>
<path d="M5061 2525 l0 -1850 104 109 105 110 -1 1535 0 1536 -104 205 -104
205 0 -1850z"/>
<path d="M1792 4083 c-50 -104 -120 -254 -156 -335 l-66 -148 0 -1238 0 -1238
50 -73 c75 -108 130 -179 203 -256 l66 -70 1 1773 c0 974 -1 1772 -3 1772 -2
0 -45 -84 -95 -187z"/>
<path d="M5470 2344 l0 -1149 43 75 42 75 3 962 2 962 -41 108 c-22 59 -43
110 -45 112 -2 2 -4 -513 -4 -1145z"/>
<path d="M1352 3013 c-5 -21 -24 -90 -41 -153 l-31 -115 0 -455 c0 -451 0
-456 24 -545 14 -49 34 -115 45 -145 l20 -55 0 753 c1 413 -1 752 -3 752 -2 0
-8 -17 -14 -37z"/>
</g>
</svg>
